#!OML:ASF E:\motion texture\Top Level 1\Subject 1\Session 1\male.ASF
:FULLY-SPECIFIED
:DEGREES
154
root 20.8322 17.8593 6.39379 59.997 -80.1405 -52.0431
lowerback 0.586939 0.441458 6.1525
upperback -0.377 0.549684 4.83676
thorax -0.703508 0.202627 1.52676
lowerneck -18.8585 -4.60894 -6.48208
upperneck 15.1819 -5.51366 5.07262
head 8.12687 -2.49333 2.05871
rclavicle 5.96354e-016 6.04305e-014
rhumerus -29.2273 19.3206 -89.2175
rradius 85.9451
rwrist 19.8967
rhand -19.9581 -19.1199
rfingers 7.12502
rthumb 6.38022 -49.0038
lclavicle 5.96354e-016 6.04305e-014
lhumerus -38.3697 -11.894 101.619
lradius 56.5184
lwrist -10.6957
lhand -16.7424 21.5091
lfingers 7.12502
lthumb 9.48387 51.2756
rfemur -16.8296 0.763073 30.0696
rtibia 19.3174
rfoot -6.90468 -17.3961
rtoes 13.2885
lfemur -24.9043 -1.10847 -6.7365
ltibia 55.1698
lfoot -0.400708 1.35525
ltoes -18.9863
155
root 20.6768 17.8666 6.38973 60.234 -80.0562 -52.2646
lowerback 0.588437 0.506267 6.24871
upperback -0.355593 0.634201 4.84581
thorax -0.679704 0.244523 1.48195
lowerneck -18.7966 -4.68333 -6.55489
upperneck 15.1163 -5.61045 5.14274
head 8.10456 -2.53739 2.08217
rclavicle -3.77691e-015 5.80451e-014
rhumerus -29.6591 19.1524 -89.3771
rradius 86.0229
rwrist 19.8581
rhand -19.9459 -19.171
rfingers 7.12502
rthumb 6.39207 -49.0545
lclavicle -3.77691e-015 5.80451e-014
lhumerus -38.4515 -11.7573 101.382
lradius 56.6764
lwrist -10.7849
lhand -16.7065 21.4536
lfingers 7.12502
lthumb 9.51854 51.2186
rfemur -16.0849 0.844335 30.269
rtibia 18.9886
rfoot -7.2446 -17.5221
rtoes 12.9991
lfemur -25.7678 -1.03416 -6.4993
ltibia 54.8578
lfoot -0.861529 1.81555
ltoes -18.7936
156
root 20.5217 17.8728 6.3864 60.4649 -79.982 -52.4755
lowerback 0.589313 0.570036 6.33789
upperback -0.335467 0.717523 4.84893
thorax -0.656659 0.285963 1.43497
lowerneck -18.7368 -4.75466 -6.62795
upperneck 15.0497 -5.70277 5.21281
head 8.08217 -2.57936 2.10623
rclavicle 9.14409e-015 -4.77083e-014
rhumerus -30.0751 18.9933 -89.5458
rradius 86.0961
rwrist 19.8235
rhand -19.9304 -19.2147
rfingers 7.12502
rthumb 6.40703 -49.0978
lclavicle 9.14409e-015 -4.77083e-014
lhumerus -38.5098 -11.6024 101.134
lradius 56.8409
lwrist -10.8744
lhand -16.6742 21.4096
lfingers 7.12502
lthumb 9.54974 51.1731
rfemur -15.3515 0.923992 30.4557
rtibia 18.6684
rfoot -7.58372 -17.6432
rtoes 12.6882
lfemur -26.5899 -0.96284 -6.27418
ltibia 54.4035
lfoot -1.34218 2.28288
ltoes -18.5872
157
root 20.367 17.8779 6.3838 60.7004 -79.9187 -52.687
lowerback 0.589483 0.63423 6.41991
upperback -0.317734 0.801712 4.84545
thorax -0.635432 0.327948 1.38518
lowerneck -18.6738 -4.82286 -6.69889
upperneck 14.9813 -5.79148 5.28256
head 8.05845 -2.61964 2.13038
rclavicle 1.73937e-014 4.77083e-015
rhumerus -30.4772 18.8406 -89.7242
rradius 86.1645
rwrist 19.7937
rhand -19.9145 -19.2495
rfingers 7.12502
rthumb 6.42236 -49.1321
lclavicle 1.73937e-014 4.77083e-015
lhumerus -38.5501 -11.4315 100.876
lradius 57.0121
lwrist -10.9639
lhand -16.6405 21.385
lfingers 7.12502
lthumb 9.58225 51.1471
rfemur -14.629 1.00318 30.63
rtibia 18.3582
rfoot -7.91847 -17.76
rtoes 12.3564
lfemur -27.3674 -0.892359 -6.06018
ltibia 53.8071
lfoot -1.83236 2.75419
ltoes -18.3779
158
root 20.2124 17.8818 6.38198 60.9428 -79.8656 -52.9008
lowerback 0.587486 0.697651 6.49489
upperback -0.301391 0.884902 4.8367
thorax -0.614229 0.369571 1.33393
lowerneck -18.6124 -4.88728 -6.76935
upperneck 14.9123 -5.87492 5.35175
head 8.03462 -2.65745 2.15495
rclavicle 6.36111e-015 -5.56597e-015
rhumerus -30.8631 18.6997 -89.9105
rradius 86.2287
rwrist 19.7689
rhand -19.896 -19.2775
rfingers 7.12502
rthumb 6.44026 -49.1595
lclavicle 6.36111e-015 -5.56597e-015
lhumerus -38.5704 -11.2414 100.61
lradius 57.189
lwrist -11.0532
lhand -16.6154 21.3655
lfingers 7.12502
lthumb 9.60646 51.1265
rfemur -13.919 1.08145 30.7923
rtibia 18.0595
rfoot -8.24926 -17.8718
rtoes 12.0046
lfemur -28.1 -0.822969 -5.85654
ltibia 53.0712
lfoot -2.32321 3.22203
ltoes -18.1756
159
root 20.0579 17.8845 6.38096 61.1959 -79.822 -53.1209
lowerback 0.583551 0.760417 6.56399
upperback -0.286664 0.967294 4.82275
thorax -0.593399 0.41091 1.28064
lowerneck -18.5528 -4.94812 -6.83806
upperneck 14.8436 -5.95362 5.41989
head 8.01093 -2.69303 2.17949
rclavicle 3.67752e-015 8.74653e-015
rhumerus -31.2319 18.5698 -90.1047
rradius 86.2871
rwrist 19.7495
rhand -19.8784 -19.2982
rfingers 7.12502
rthumb 6.45721 -49.1797
lclavicle 3.67752e-015 8.74653e-015
lhumerus -38.575 -11.0326 100.337
lradius 57.3735
lwrist -11.1423
lhand -16.593 21.3664
lfingers 7.12502
lthumb 9.62809 51.1264
rfemur -13.2221 1.15794 30.9433
rtibia 17.7748
rfoot -8.57643 -17.9772
rtoes 11.6327
lfemur -28.7864 -0.75356 -5.66218
ltibia 52.1996
lfoot -2.8064 3.67841
ltoes -17.9879
160
root 19.9034 17.886 6.3808 61.4573 -79.7861 -53.3446
lowerback 0.577467 0.821504 6.62849
upperback -0.27379 1.0475 4.80436
thorax -0.573102 0.451239 1.22542
lowerneck -18.4962 -5.00468 -6.90571
upperneck 14.7759 -6.02641 5.48712
head 7.98776 -2.72582 2.20429
rclavicle -7.35503e-015 -6.36111e-015
rhumerus -31.5841 18.4542 -90.306
rradius 86.3414
rwrist 19.7354
rhand -19.8599 -19.3118
rfingers 7.12502
rthumb 6.47508 -49.1928
lclavicle -7.35503e-015 -6.36111e-015
lhumerus -38.5639 -10.8023 100.058
lradius 57.5631
lwrist -11.2326
lhand -16.5736 21.3796
lfingers 7.12502
lthumb 9.64672 51.1387
rfemur -12.5394 1.23067 31.0839
rtibia 17.5055
rfoot -8.89988 -18.0748
rtoes 11.2392
lfemur -29.4273 -0.685207 -5.47587
ltibia 51.1985
lfoot -3.27607 4.11878
ltoes -17.8126
161
root 19.7489 17.8863 6.38153 61.7317 -79.7576 -53.5773
lowerback 0.569198 0.881561 6.68918
upperback -0.263629 1.12645 4.78116
thorax -0.55417 0.490994 1.16741
lowerneck -18.4377 -5.05693 -6.97057
upperneck 14.7077 -6.09395 5.55305
head 7.96373 -2.75616 2.22894
rclavicle -1.61016e-014 -2.38542e-014
rhumerus -31.9204 18.351 -90.5145
rradius 86.3901
rwrist 19.7259
rhand -19.8388 -19.3179
rfingers 7.12502
rthumb 6.49543 -49.1983
lclavicle -1.61016e-014 -2.38542e-014
lhumerus -38.5431 -10.5546 99.7752
lradius 57.76
lwrist -11.3218
lhand -16.5574 21.4095
lfingers 7.12502
lthumb 9.66242 51.1679
rfemur -11.8711 1.29934 31.2141
rtibia 17.2546
rfoot -9.22119 -18.1628
rtoes 10.8258
lfemur -30.0214 -0.617185 -5.2973
ltibia 50.075
lfoot -3.71647 4.54182
ltoes -17.6376
162
root 19.5943 17.8854 6.38317 62.027 -79.7356 -53.8274
lowerback 0.56065 0.939234 6.74686
upperback -0.254491 1.20235 4.7549
thorax -0.536 0.529278 1.108
lowerneck -18.3875 -5.1043 -7.03345
upperneck 14.6427 -6.15437 5.61635
head 7.9417 -2.78315 2.25319
rclavicle -1.59028e-015 4.21423e-014
rhumerus -32.2362 18.2654 -90.7282
rradius 86.4328
rwrist 19.7216
rhand -19.8177 -19.3177
rfingers 7.12502
rthumb 6.51576 -49.1975
lclavicle -1.59028e-015 4.21423e-014
lhumerus -38.5087 -10.2846 99.4883
lradius 57.9625
lwrist -11.4118
lhand -16.5453 21.4516
lfingers 7.12502
lthumb 9.67404 51.2095
rfemur -11.2178 1.36368 31.3358
rtibia 17.0247
rfoot -9.53996 -18.2402
rtoes 10.3864
lfemur -30.5694 -0.549223 -5.12519
ltibia 48.8397
lfoot -4.11879 4.9433
ltoes -17.4504
163
root 19.4395 17.8832 6.38574 62.3501 -79.7185 -54.1019
lowerback 0.549742 0.995718 6.80293
upperback -0.247016 1.27662 4.7258
thorax -0.518027 0.566783 1.04665
lowerneck -18.3406 -5.14723 -7.09377
upperneck 14.5794 -6.20894 5.6781
head 7.92034 -2.80733 2.27722
rclavicle -1.82882e-014 -2.70347e-014
rhumerus -32.5344 18.1948 -90.9461
rradius 86.4711
rwrist 19.721
rhand -19.7949 -19.311
rfingers 7.12502
rthumb 6.53782 -49.1901
lclavicle -1.82882e-014 -2.70347e-014
lhumerus -38.4649 -9.99855 99.2007
lradius 58.1714
lwrist -11.5004
lhand -16.5383 21.5086
lfingers 7.12502
lthumb 9.68087 51.2661
rfemur -10.5799 1.42446 31.4508
rtibia 16.8175
rfoot -9.85567 -18.3066
rtoes 9.91919
lfemur -31.0727 -0.481399 -4.9577
ltibia 47.5038
lfoot -4.48001 5.31692
ltoes -17.2663
164
root 19.2845 17.8799 6.38922 62.7087 -79.705 -54.4093
lowerback 0.537707 1.05145 6.85879
upperback -0.241788 1.35001 4.69401
thorax -0.501497 0.603827 0.982715
lowerneck -18.2946 -5.186 -7.14961
upperneck 14.5168 -6.25852 5.73727
head 7.89892 -2.82915 2.30031
rclavicle 8.94531e-015 -5.56597e-015
rhumerus -32.8157 18.1379 -91.1681
rradius 86.5052
rwrist 19.7246
rhand -19.7699 -19.2959
rfingers 7.12502
rthumb 6.56193 -49.1743
lclavicle 8.94531e-015 -5.56597e-015
lhumerus -38.4156 -9.69918 98.914
lradius 58.3871
lwrist -11.5865
lhand -16.5368 21.5846
lfingers 7.12502
lthumb 9.68229 51.342
rfemur -9.95848 1.48221 31.561
rtibia 16.6369
rfoot -10.1691 -18.3614
rtoes 9.42314
lfemur -31.5319 -0.412578 -4.79329
ltibia 46.0808
lfoot -4.79593 5.65969
ltoes -17.0917
165
root 19.1292 17.8754 6.3937 63.0872 -79.6938 -54.7348
lowerback 0.525531 1.10473 6.91422
upperback -0.238595 1.42032 4.66022
thorax -0.486837 0.63931 0.917017
lowerneck -18.2513 -5.22 -7.20146
upperneck 14.4554 -6.30195 5.79359
head 7.87774 -2.84808 2.32257
rclavicle -1.40143e-014 4.29375e-014
rhumerus -33.0796 18.0966 -91.3928
rradius 86.535
rwrist 19.7311
rhand -19.7446 -19.2754
rfingers 7.12502
rthumb 6.58636 -49.153
lclavicle -1.40143e-014 4.29375e-014
lhumerus -38.362 -9.38577 98.6295
lradius 58.6093
lwrist -11.6704
lhand -16.5404 21.6651
lfingers 7.12502
lthumb 9.67884 51.4228
rfemur -9.35287 1.53498 31.665
rtibia 16.4834
rfoot -10.4797 -18.4053
rtoes 8.89773
lfemur -31.9489 -0.34758 -4.63345
ltibia 44.5855
lfoot -5.06269 5.97275
ltoes -16.9315
166
root 18.9735 17.8697 6.39917 63.5004 -79.6837 -55.095
lowerback 0.514296 1.15665 6.97096
upperback -0.237065 1.48905 4.62511
thorax -0.474199 0.673942 0.849284
lowerneck -18.2103 -5.24954 -7.24857
upperneck 14.395 -6.33982 5.84684
head 7.85673 -2.86439 2.34373
rclavicle 5.46658e-015 5.24792e-014
rhumerus -33.3261 18.0694 -91.6188
rradius 86.5606
rwrist 19.7412
rhand -19.7161 -19.2464
rfingers 7.12502
rthumb 6.61386 -49.1231
lclavicle 5.46658e-015 5.24792e-014
lhumerus -38.3042 -9.06187 98.3491
lradius 58.8364
lwrist -11.752
lhand -16.5496 21.757
lfingers 7.12502
lthumb 9.66991 51.515
rfemur -8.76314 1.58323 31.7656
rtibia 16.3607
rfoot -10.7855 -18.4372
rtoes 8.33256
lfemur -32.3233 -0.285347 -4.47564
ltibia 43.0331
lfoot -5.27927 6.26119
ltoes -16.7796
